<mxfile host="app.diagrams.net" modified="2022-09-02T08:29:14.697Z" agent="5.0 (Windows NT 10.0; Win64; x64) AppleWebKit/537.36 (KHTML, like Gecko) Chrome/104.0.0.0 Safari/537.36" etag="0vojSgtuxF7q4PHkUmbD" version="20.2.8" type="github">
  <diagram id="IzedzpKgEfjYTyYAFZdJ" name="第 1 页">
    <mxGraphModel dx="1422" dy="754" grid="1" gridSize="10" guides="1" tooltips="1" connect="1" arrows="1" fold="1" page="1" pageScale="1" pageWidth="827" pageHeight="1169" math="0" shadow="0">
      <root>
        <mxCell id="0" />
        <mxCell id="1" parent="0" />
        <mxCell id="lkru97uIpmWRwWarypAv-1" value="" style="rounded=0;whiteSpace=wrap;html=1;" vertex="1" parent="1">
          <mxGeometry x="155" y="560" width="560" height="110" as="geometry" />
        </mxCell>
        <mxCell id="KsOO_eV6GUDWFjVujnLH-1" value="" style="outlineConnect=0;dashed=0;verticalLabelPosition=bottom;verticalAlign=top;align=center;html=1;shape=mxgraph.aws3.router;fillColor=#F58534;gradientColor=none;" parent="1" vertex="1">
          <mxGeometry x="380" y="200" width="90" height="80" as="geometry" />
        </mxCell>
        <mxCell id="KsOO_eV6GUDWFjVujnLH-2" value="" style="endArrow=none;html=1;rounded=0;" parent="1" edge="1">
          <mxGeometry width="50" height="50" relative="1" as="geometry">
            <mxPoint x="160" y="318" as="sourcePoint" />
            <mxPoint x="760" y="318" as="targetPoint" />
          </mxGeometry>
        </mxCell>
        <mxCell id="KsOO_eV6GUDWFjVujnLH-4" value="" style="rounded=0;whiteSpace=wrap;html=1;" parent="1" vertex="1">
          <mxGeometry x="130" y="360" width="210" height="90" as="geometry" />
        </mxCell>
        <mxCell id="KsOO_eV6GUDWFjVujnLH-8" value="HAProxy" style="rounded=1;whiteSpace=wrap;html=1;" parent="1" vertex="1">
          <mxGeometry x="140" y="390" width="80" height="35" as="geometry" />
        </mxCell>
        <mxCell id="KsOO_eV6GUDWFjVujnLH-9" value="BGP Speaker&amp;nbsp;" style="rounded=1;whiteSpace=wrap;html=1;" parent="1" vertex="1">
          <mxGeometry x="230" y="390" width="100" height="35" as="geometry" />
        </mxCell>
        <mxCell id="KsOO_eV6GUDWFjVujnLH-10" value="" style="rounded=0;whiteSpace=wrap;html=1;" parent="1" vertex="1">
          <mxGeometry x="360" y="362.5" width="210" height="90" as="geometry" />
        </mxCell>
        <mxCell id="KsOO_eV6GUDWFjVujnLH-11" value="HAProxy" style="rounded=1;whiteSpace=wrap;html=1;" parent="1" vertex="1">
          <mxGeometry x="370" y="392.5" width="80" height="35" as="geometry" />
        </mxCell>
        <mxCell id="KsOO_eV6GUDWFjVujnLH-12" value="BGP Speaker&amp;nbsp;" style="rounded=1;whiteSpace=wrap;html=1;" parent="1" vertex="1">
          <mxGeometry x="460" y="392.5" width="100" height="35" as="geometry" />
        </mxCell>
        <mxCell id="KsOO_eV6GUDWFjVujnLH-13" value="" style="rounded=0;whiteSpace=wrap;html=1;" parent="1" vertex="1">
          <mxGeometry x="590" y="362.5" width="210" height="90" as="geometry" />
        </mxCell>
        <mxCell id="KsOO_eV6GUDWFjVujnLH-14" value="HAProxy" style="rounded=1;whiteSpace=wrap;html=1;" parent="1" vertex="1">
          <mxGeometry x="600" y="392.5" width="80" height="35" as="geometry" />
        </mxCell>
        <mxCell id="KsOO_eV6GUDWFjVujnLH-15" value="BGP Speaker&amp;nbsp;" style="rounded=1;whiteSpace=wrap;html=1;" parent="1" vertex="1">
          <mxGeometry x="690" y="392.5" width="100" height="35" as="geometry" />
        </mxCell>
        <mxCell id="KsOO_eV6GUDWFjVujnLH-30" value="后端真实服务" style="rounded=1;whiteSpace=wrap;html=1;" parent="1" vertex="1">
          <mxGeometry x="175" y="585" width="80" height="60" as="geometry" />
        </mxCell>
        <mxCell id="KsOO_eV6GUDWFjVujnLH-31" value="后端真实服务" style="rounded=1;whiteSpace=wrap;html=1;" parent="1" vertex="1">
          <mxGeometry x="265" y="585" width="80" height="60" as="geometry" />
        </mxCell>
        <mxCell id="KsOO_eV6GUDWFjVujnLH-32" value="后端真实服务" style="rounded=1;whiteSpace=wrap;html=1;" parent="1" vertex="1">
          <mxGeometry x="359" y="585" width="80" height="60" as="geometry" />
        </mxCell>
        <mxCell id="KsOO_eV6GUDWFjVujnLH-33" value="后端真实服务" style="rounded=1;whiteSpace=wrap;html=1;" parent="1" vertex="1">
          <mxGeometry x="450" y="585" width="80" height="60" as="geometry" />
        </mxCell>
        <mxCell id="KsOO_eV6GUDWFjVujnLH-35" value="后端真实服务" style="rounded=1;whiteSpace=wrap;html=1;" parent="1" vertex="1">
          <mxGeometry x="535" y="585" width="80" height="60" as="geometry" />
        </mxCell>
        <mxCell id="KsOO_eV6GUDWFjVujnLH-36" value="外部客户端" style="rounded=1;whiteSpace=wrap;html=1;" parent="1" vertex="1">
          <mxGeometry x="140" y="4" width="80" height="60" as="geometry" />
        </mxCell>
        <mxCell id="KsOO_eV6GUDWFjVujnLH-37" value="外部客户端" style="rounded=1;whiteSpace=wrap;html=1;" parent="1" vertex="1">
          <mxGeometry x="150" y="14" width="80" height="60" as="geometry" />
        </mxCell>
        <mxCell id="KsOO_eV6GUDWFjVujnLH-38" value="外部客户端" style="rounded=1;whiteSpace=wrap;html=1;" parent="1" vertex="1">
          <mxGeometry x="160" y="24" width="80" height="60" as="geometry" />
        </mxCell>
        <mxCell id="KsOO_eV6GUDWFjVujnLH-39" value="外部客户端" style="rounded=1;whiteSpace=wrap;html=1;" parent="1" vertex="1">
          <mxGeometry x="170" y="34" width="80" height="60" as="geometry" />
        </mxCell>
        <mxCell id="KsOO_eV6GUDWFjVujnLH-40" value="外部客户端" style="rounded=1;whiteSpace=wrap;html=1;" parent="1" vertex="1">
          <mxGeometry x="180" y="44" width="80" height="60" as="geometry" />
        </mxCell>
        <mxCell id="KsOO_eV6GUDWFjVujnLH-41" value="外部客户端" style="rounded=1;whiteSpace=wrap;html=1;" parent="1" vertex="1">
          <mxGeometry x="190" y="54" width="80" height="60" as="geometry" />
        </mxCell>
        <mxCell id="KsOO_eV6GUDWFjVujnLH-42" value="外部客户端" style="rounded=1;whiteSpace=wrap;html=1;" parent="1" vertex="1">
          <mxGeometry x="200" y="64" width="80" height="60" as="geometry" />
        </mxCell>
        <mxCell id="KsOO_eV6GUDWFjVujnLH-43" value="外部客户端" style="rounded=1;whiteSpace=wrap;html=1;" parent="1" vertex="1">
          <mxGeometry x="210" y="74" width="80" height="60" as="geometry" />
        </mxCell>
        <mxCell id="KsOO_eV6GUDWFjVujnLH-44" value="外部客户端" style="rounded=1;whiteSpace=wrap;html=1;" parent="1" vertex="1">
          <mxGeometry x="220" y="84" width="80" height="60" as="geometry" />
        </mxCell>
        <mxCell id="KsOO_eV6GUDWFjVujnLH-45" value="外部客户端" style="rounded=1;whiteSpace=wrap;html=1;" parent="1" vertex="1">
          <mxGeometry x="230" y="94" width="80" height="60" as="geometry" />
        </mxCell>
        <mxCell id="KsOO_eV6GUDWFjVujnLH-46" value="外部客户端" style="rounded=1;whiteSpace=wrap;html=1;" parent="1" vertex="1">
          <mxGeometry x="325" y="4" width="80" height="60" as="geometry" />
        </mxCell>
        <mxCell id="KsOO_eV6GUDWFjVujnLH-47" value="外部客户端" style="rounded=1;whiteSpace=wrap;html=1;" parent="1" vertex="1">
          <mxGeometry x="335" y="14" width="80" height="60" as="geometry" />
        </mxCell>
        <mxCell id="KsOO_eV6GUDWFjVujnLH-48" value="外部客户端" style="rounded=1;whiteSpace=wrap;html=1;" parent="1" vertex="1">
          <mxGeometry x="345" y="24" width="80" height="60" as="geometry" />
        </mxCell>
        <mxCell id="KsOO_eV6GUDWFjVujnLH-49" value="外部客户端" style="rounded=1;whiteSpace=wrap;html=1;" parent="1" vertex="1">
          <mxGeometry x="355" y="34" width="80" height="60" as="geometry" />
        </mxCell>
        <mxCell id="KsOO_eV6GUDWFjVujnLH-50" value="外部客户端" style="rounded=1;whiteSpace=wrap;html=1;" parent="1" vertex="1">
          <mxGeometry x="365" y="44" width="80" height="60" as="geometry" />
        </mxCell>
        <mxCell id="KsOO_eV6GUDWFjVujnLH-51" value="外部客户端" style="rounded=1;whiteSpace=wrap;html=1;" parent="1" vertex="1">
          <mxGeometry x="375" y="54" width="80" height="60" as="geometry" />
        </mxCell>
        <mxCell id="KsOO_eV6GUDWFjVujnLH-52" value="外部客户端" style="rounded=1;whiteSpace=wrap;html=1;" parent="1" vertex="1">
          <mxGeometry x="385" y="64" width="80" height="60" as="geometry" />
        </mxCell>
        <mxCell id="KsOO_eV6GUDWFjVujnLH-53" value="外部客户端" style="rounded=1;whiteSpace=wrap;html=1;" parent="1" vertex="1">
          <mxGeometry x="395" y="74" width="80" height="60" as="geometry" />
        </mxCell>
        <mxCell id="KsOO_eV6GUDWFjVujnLH-54" value="外部客户端" style="rounded=1;whiteSpace=wrap;html=1;" parent="1" vertex="1">
          <mxGeometry x="405" y="84" width="80" height="60" as="geometry" />
        </mxCell>
        <mxCell id="KsOO_eV6GUDWFjVujnLH-55" value="外部客户端" style="rounded=1;whiteSpace=wrap;html=1;" parent="1" vertex="1">
          <mxGeometry x="415" y="94" width="80" height="60" as="geometry" />
        </mxCell>
        <mxCell id="KsOO_eV6GUDWFjVujnLH-56" value="外部客户端" style="rounded=1;whiteSpace=wrap;html=1;" parent="1" vertex="1">
          <mxGeometry x="510" y="4" width="80" height="60" as="geometry" />
        </mxCell>
        <mxCell id="KsOO_eV6GUDWFjVujnLH-57" value="外部客户端" style="rounded=1;whiteSpace=wrap;html=1;" parent="1" vertex="1">
          <mxGeometry x="520" y="14" width="80" height="60" as="geometry" />
        </mxCell>
        <mxCell id="KsOO_eV6GUDWFjVujnLH-58" value="外部客户端" style="rounded=1;whiteSpace=wrap;html=1;" parent="1" vertex="1">
          <mxGeometry x="530" y="24" width="80" height="60" as="geometry" />
        </mxCell>
        <mxCell id="KsOO_eV6GUDWFjVujnLH-59" value="外部客户端" style="rounded=1;whiteSpace=wrap;html=1;" parent="1" vertex="1">
          <mxGeometry x="540" y="34" width="80" height="60" as="geometry" />
        </mxCell>
        <mxCell id="KsOO_eV6GUDWFjVujnLH-60" value="外部客户端" style="rounded=1;whiteSpace=wrap;html=1;" parent="1" vertex="1">
          <mxGeometry x="550" y="44" width="80" height="60" as="geometry" />
        </mxCell>
        <mxCell id="KsOO_eV6GUDWFjVujnLH-61" value="外部客户端" style="rounded=1;whiteSpace=wrap;html=1;" parent="1" vertex="1">
          <mxGeometry x="560" y="54" width="80" height="60" as="geometry" />
        </mxCell>
        <mxCell id="KsOO_eV6GUDWFjVujnLH-62" value="外部客户端" style="rounded=1;whiteSpace=wrap;html=1;" parent="1" vertex="1">
          <mxGeometry x="570" y="64" width="80" height="60" as="geometry" />
        </mxCell>
        <mxCell id="KsOO_eV6GUDWFjVujnLH-63" value="外部客户端" style="rounded=1;whiteSpace=wrap;html=1;" parent="1" vertex="1">
          <mxGeometry x="580" y="74" width="80" height="60" as="geometry" />
        </mxCell>
        <mxCell id="KsOO_eV6GUDWFjVujnLH-64" value="外部客户端" style="rounded=1;whiteSpace=wrap;html=1;" parent="1" vertex="1">
          <mxGeometry x="590" y="84" width="80" height="60" as="geometry" />
        </mxCell>
        <mxCell id="KsOO_eV6GUDWFjVujnLH-65" value="外部客户端" style="rounded=1;whiteSpace=wrap;html=1;" parent="1" vertex="1">
          <mxGeometry x="600" y="94" width="80" height="60" as="geometry" />
        </mxCell>
        <mxCell id="KsOO_eV6GUDWFjVujnLH-68" value="" style="shape=flexArrow;endArrow=classic;html=1;rounded=0;entryX=0.5;entryY=0;entryDx=0;entryDy=0;entryPerimeter=0;exitX=0.5;exitY=1;exitDx=0;exitDy=0;" parent="1" source="KsOO_eV6GUDWFjVujnLH-45" target="KsOO_eV6GUDWFjVujnLH-1" edge="1">
          <mxGeometry width="50" height="50" relative="1" as="geometry">
            <mxPoint x="390" y="360" as="sourcePoint" />
            <mxPoint x="440" y="310" as="targetPoint" />
          </mxGeometry>
        </mxCell>
        <mxCell id="KsOO_eV6GUDWFjVujnLH-69" value="" style="shape=flexArrow;endArrow=classic;html=1;rounded=0;exitX=0.5;exitY=1;exitDx=0;exitDy=0;entryX=0.5;entryY=0;entryDx=0;entryDy=0;entryPerimeter=0;" parent="1" source="KsOO_eV6GUDWFjVujnLH-55" target="KsOO_eV6GUDWFjVujnLH-1" edge="1">
          <mxGeometry width="50" height="50" relative="1" as="geometry">
            <mxPoint x="390" y="360" as="sourcePoint" />
            <mxPoint x="450" y="200" as="targetPoint" />
          </mxGeometry>
        </mxCell>
        <mxCell id="KsOO_eV6GUDWFjVujnLH-70" value="" style="shape=flexArrow;endArrow=classic;html=1;rounded=0;exitX=0.5;exitY=1;exitDx=0;exitDy=0;entryX=0.5;entryY=0;entryDx=0;entryDy=0;entryPerimeter=0;" parent="1" source="KsOO_eV6GUDWFjVujnLH-65" target="KsOO_eV6GUDWFjVujnLH-1" edge="1">
          <mxGeometry width="50" height="50" relative="1" as="geometry">
            <mxPoint x="390" y="360" as="sourcePoint" />
            <mxPoint x="440" y="220" as="targetPoint" />
          </mxGeometry>
        </mxCell>
        <mxCell id="KsOO_eV6GUDWFjVujnLH-71" value="" style="shape=flexArrow;endArrow=classic;html=1;rounded=0;exitX=0.5;exitY=1;exitDx=0;exitDy=0;exitPerimeter=0;entryX=0.5;entryY=0;entryDx=0;entryDy=0;" parent="1" source="KsOO_eV6GUDWFjVujnLH-1" target="KsOO_eV6GUDWFjVujnLH-8" edge="1">
          <mxGeometry width="50" height="50" relative="1" as="geometry">
            <mxPoint x="390" y="360" as="sourcePoint" />
            <mxPoint x="440" y="310" as="targetPoint" />
          </mxGeometry>
        </mxCell>
        <mxCell id="KsOO_eV6GUDWFjVujnLH-72" value="" style="shape=flexArrow;endArrow=classic;html=1;rounded=0;exitX=0.5;exitY=1;exitDx=0;exitDy=0;exitPerimeter=0;" parent="1" source="KsOO_eV6GUDWFjVujnLH-1" target="KsOO_eV6GUDWFjVujnLH-11" edge="1">
          <mxGeometry width="50" height="50" relative="1" as="geometry">
            <mxPoint x="390" y="360" as="sourcePoint" />
            <mxPoint x="440" y="310" as="targetPoint" />
          </mxGeometry>
        </mxCell>
        <mxCell id="KsOO_eV6GUDWFjVujnLH-73" value="" style="shape=flexArrow;endArrow=classic;html=1;rounded=0;exitX=0.5;exitY=1;exitDx=0;exitDy=0;exitPerimeter=0;entryX=0.5;entryY=0;entryDx=0;entryDy=0;" parent="1" source="KsOO_eV6GUDWFjVujnLH-1" target="KsOO_eV6GUDWFjVujnLH-14" edge="1">
          <mxGeometry width="50" height="50" relative="1" as="geometry">
            <mxPoint x="390" y="360" as="sourcePoint" />
            <mxPoint x="440" y="310" as="targetPoint" />
          </mxGeometry>
        </mxCell>
        <mxCell id="KsOO_eV6GUDWFjVujnLH-74" value="" style="shape=flexArrow;endArrow=classic;html=1;rounded=0;exitX=0.5;exitY=1;exitDx=0;exitDy=0;entryX=0.25;entryY=0;entryDx=0;entryDy=0;" parent="1" source="KsOO_eV6GUDWFjVujnLH-8" target="lkru97uIpmWRwWarypAv-1" edge="1">
          <mxGeometry width="50" height="50" relative="1" as="geometry">
            <mxPoint x="390" y="460" as="sourcePoint" />
            <mxPoint x="110" y="550" as="targetPoint" />
          </mxGeometry>
        </mxCell>
        <mxCell id="KsOO_eV6GUDWFjVujnLH-75" value="" style="shape=flexArrow;endArrow=classic;html=1;rounded=0;entryX=0.5;entryY=0;entryDx=0;entryDy=0;" parent="1" source="KsOO_eV6GUDWFjVujnLH-11" edge="1" target="lkru97uIpmWRwWarypAv-1">
          <mxGeometry width="50" height="50" relative="1" as="geometry">
            <mxPoint x="390" y="460" as="sourcePoint" />
            <mxPoint x="260" y="460" as="targetPoint" />
          </mxGeometry>
        </mxCell>
        <mxCell id="KsOO_eV6GUDWFjVujnLH-76" value="" style="shape=flexArrow;endArrow=classic;html=1;rounded=0;exitX=0.5;exitY=1;exitDx=0;exitDy=0;entryX=0.75;entryY=0;entryDx=0;entryDy=0;" parent="1" source="KsOO_eV6GUDWFjVujnLH-14" edge="1" target="lkru97uIpmWRwWarypAv-1">
          <mxGeometry width="50" height="50" relative="1" as="geometry">
            <mxPoint x="390" y="460" as="sourcePoint" />
            <mxPoint x="340" y="480" as="targetPoint" />
          </mxGeometry>
        </mxCell>
        <mxCell id="lkru97uIpmWRwWarypAv-2" value="。。。。。。" style="text;html=1;strokeColor=none;fillColor=none;align=center;verticalAlign=middle;whiteSpace=wrap;rounded=0;" vertex="1" parent="1">
          <mxGeometry x="635" y="600" width="80" height="30" as="geometry" />
        </mxCell>
      </root>
    </mxGraphModel>
  </diagram>
</mxfile>
